<?xml version="1.0" encoding="UTF-8"?> <svg xmlns="http://www.w3.org/2000/svg" data-v-fde0c5aa="" viewBox="0 0 300 300" class="iconAbove"><defs data-v-fde0c5aa=""></defs><rect data-v-fde0c5aa="" fill="transparent" x="0" y="0" width="300px" height="300px" class="logo-background-square"></rect><defs data-v-fde0c5aa=""></defs><g data-v-fde0c5aa="" id="6ba52716-f176-4633-87db-580b2d39b677" fill="#000000" transform="matrix(2.9816514804963097,0,0,2.9816514804963097,16.272935649379612,166.21559681028302)"><path d="M11.66 3.92L8.67 3.92L6.48 11.80L4.30 3.92L1.25 3.92L1.25 13.58L3.18 13.58L3.18 9.11C3.18 8.11 3.18 6.83 3.15 5.82C3.37 6.82 3.72 8.11 4.02 9.09L5.40 13.58L7.50 13.58L8.86 9.10C9.17 8.11 9.52 6.82 9.76 5.81C9.73 6.82 9.73 8.11 9.73 9.11L9.73 13.58L11.66 13.58ZM17.77 13.58L19.66 13.58C19.54 12.75 19.52 12.25 19.52 11.69L19.52 9.28C19.52 8.88 19.50 8.48 19.47 8.13C19.36 6.85 18.58 5.94 16.49 5.94C14.71 5.94 13.36 6.89 13.30 8.57L15.18 8.55C15.23 7.74 15.65 7.29 16.42 7.29C17.18 7.29 17.51 7.67 17.57 8.19C17.60 8.44 17.60 8.67 17.60 8.89L17.60 9.04L17.12 9.04C14.42 9.04 13.02 9.97 13.02 11.61C13.02 13.02 14.13 13.78 15.41 13.78C16.11 13.78 16.74 13.64 17.26 13.29L17.63 12.49ZM16.16 12.42C15.47 12.42 15.02 12.11 15.02 11.45C15.02 10.47 16.06 10.12 17.60 10.23L17.60 10.84C17.60 11.87 16.94 12.42 16.16 12.42ZM28.25 8.02C28.10 6.72 27.19 5.94 25.61 5.94C24.89 5.94 24.35 6.08 23.81 6.45L23.24 7.34L23.24 6.13L21.31 6.13L21.31 13.58L23.24 13.58L23.24 10.18C23.24 8.11 23.98 7.29 24.92 7.29C25.86 7.29 26.29 7.83 26.35 8.61C26.38 8.99 26.38 9.34 26.38 9.65L26.38 13.58L28.31 13.58L28.31 9.38C28.31 8.78 28.29 8.40 28.25 8.02ZM34.33 13.58L36.22 13.58C36.11 12.75 36.08 12.25 36.08 11.69L36.08 9.28C36.08 8.88 36.06 8.48 36.04 8.13C35.92 6.85 35.14 5.94 33.05 5.94C31.28 5.94 29.92 6.89 29.86 8.57L31.74 8.55C31.79 7.74 32.21 7.29 32.98 7.29C33.74 7.29 34.08 7.67 34.13 8.19C34.16 8.44 34.16 8.67 34.16 8.89L34.16 9.04L33.68 9.04C30.98 9.04 29.58 9.97 29.58 11.61C29.58 13.02 30.69 13.78 31.98 13.78C32.68 13.78 33.31 13.64 33.82 13.29L34.19 12.49ZM32.72 12.42C32.03 12.42 31.58 12.11 31.58 11.45C31.58 10.47 32.62 10.12 34.16 10.23L34.16 10.84C34.16 11.87 33.50 12.42 32.72 12.42ZM45.11 6.13L43.18 6.13L43.18 7.13L42.69 6.36C42.31 6.09 41.55 5.94 40.94 5.94C39.02 5.94 37.37 7.24 37.37 9.94C37.37 12.12 38.67 13.62 40.77 13.62C41.52 13.62 42.20 13.43 42.62 13.10L43.18 12.28L43.18 12.46C43.18 12.78 43.18 13.09 43.16 13.37C43.09 14.56 42.36 15.16 41.17 15.16C40.18 15.16 39.54 14.73 39.45 14.04L39.44 13.92L37.56 13.92L37.58 14.06C37.74 15.69 38.96 16.60 41.15 16.60C43.50 16.60 45.01 15.48 45.09 13.16C45.11 12.75 45.11 12.18 45.11 11.72ZM41.24 12.26C40.10 12.26 39.37 11.30 39.37 9.77C39.37 8.06 40.19 7.29 41.31 7.29C42.21 7.29 43.18 7.90 43.18 9.58L43.18 9.79C43.18 11.61 42.31 12.26 41.24 12.26ZM53.66 9.70C53.66 7.67 52.46 5.94 50.18 5.94C47.89 5.94 46.40 7.60 46.40 9.88C46.40 12.50 47.98 13.78 50.02 13.78C51.77 13.78 53.17 12.89 53.55 11.16L51.62 11.16C51.49 11.96 50.89 12.42 50.06 12.42C49.17 12.42 48.47 11.93 48.34 10.36L53.63 10.36C53.66 10.11 53.66 9.88 53.66 9.70ZM50.09 7.29C51.02 7.29 51.55 7.92 51.67 9.10L48.40 9.10C48.57 7.87 49.20 7.29 50.09 7.29ZM66.05 7.78C65.88 6.76 65.07 5.94 63.66 5.94C62.99 5.94 62.48 6.08 62.06 6.37L61.33 7.35C61.04 6.54 60.27 5.94 59.05 5.94C58.38 5.94 57.89 6.08 57.47 6.37L56.92 7.27L56.92 6.13L54.99 6.13L54.99 13.58L56.92 13.58L56.92 9.76C56.92 8.04 57.40 7.29 58.27 7.29C59.01 7.29 59.44 7.71 59.54 8.48C59.58 8.86 59.60 9.27 59.60 9.70L59.60 13.58L61.52 13.58L61.52 9.76C61.52 8.04 62.01 7.29 62.87 7.29C63.62 7.29 64.04 7.71 64.13 8.48C64.18 8.86 64.19 9.27 64.19 9.70L64.19 13.58L66.12 13.58L66.12 9.14C66.12 8.54 66.11 8.16 66.05 7.78ZM74.58 9.70C74.58 7.67 73.37 5.94 71.09 5.94C68.81 5.94 67.31 7.60 67.31 9.88C67.31 12.50 68.89 13.78 70.94 13.78C72.69 13.78 74.09 12.89 74.47 11.16L72.53 11.16C72.41 11.96 71.81 12.42 70.98 12.42C70.08 12.42 69.38 11.93 69.26 10.36L74.55 10.36C74.58 10.11 74.58 9.88 74.58 9.70ZM71.01 7.29C71.93 7.29 72.46 7.92 72.59 9.10L69.31 9.10C69.48 7.87 70.11 7.29 71.01 7.29ZM82.85 8.02C82.70 6.72 81.79 5.94 80.21 5.94C79.49 5.94 78.95 6.08 78.41 6.45L77.84 7.34L77.84 6.13L75.91 6.13L75.91 13.58L77.84 13.58L77.84 10.18C77.84 8.11 78.58 7.29 79.52 7.29C80.46 7.29 80.89 7.83 80.95 8.61C80.98 8.99 80.98 9.34 80.98 9.65L80.98 13.58L82.91 13.58L82.91 9.38C82.91 8.78 82.89 8.40 82.85 8.02ZM86.91 7.46L88.45 7.46L88.45 6.19L86.91 6.19L86.91 4.35L84.98 4.35L84.98 6.19L83.89 6.19L83.89 7.46L84.98 7.46L84.98 11.13C84.98 11.55 84.98 11.87 85.01 12.21C85.09 13.26 85.61 13.73 87.05 13.73C87.49 13.73 87.89 13.71 88.33 13.64L88.33 12.38C87.25 12.46 86.98 12.29 86.93 11.56C86.91 11.37 86.91 11.16 86.91 10.91Z"></path></g><defs data-v-fde0c5aa=""><linearGradient data-v-fde0c5aa="" gradientTransform="rotate(25)" id="f285b46e-d010-4e25-bfa2-b86ca89bd46f" x1="0%" y1="0%" x2="100%" y2="0%"><stop data-v-fde0c5aa="" offset="0%" stop-color="#01648B" stop-opacity="1"></stop><stop data-v-fde0c5aa="" offset="100%" stop-color="#5BD0A4" stop-opacity="1"></stop></linearGradient></defs><g data-v-fde0c5aa="" id="8aba4777-4ea3-4de6-8b09-0a2bab8b8e50" stroke="none" fill="url(#f285b46e-d010-4e25-bfa2-b86ca89bd46f)" transform="matrix(1.9972709540418634,0,0,1.9972709540418634,50.13721800580356,22.23177956019412)"><path d="M73.789 58.976a6.659 6.659 0 0 0-5.751-3.318c-.987 0-1.958.235-2.849.661l-8.713-10.916a8.57 8.57 0 0 0 1.861-3.466 8.573 8.573 0 0 0-.863-6.55 8.66 8.66 0 0 0-7.48-4.316c-1.507 0-2.996.4-4.307 1.158a8.568 8.568 0 0 0-4.023 5.24 8.565 8.565 0 0 0 .861 6.549c.288.5.637.951 1.012 1.375L34.81 56.319a6.62 6.62 0 0 0-2.848-.66 6.661 6.661 0 0 0-5.752 3.318 6.596 6.596 0 0 0-.662 5.035 6.584 6.584 0 0 0 3.09 4.027 6.637 6.637 0 0 0 3.314.891 6.663 6.663 0 0 0 5.752-3.318 6.599 6.599 0 0 0 .662-5.035 6.595 6.595 0 0 0-1.204-2.396l8.714-10.911a8.67 8.67 0 0 0 2.623.916v7.655a6.646 6.646 0 0 0-1.817.707 6.643 6.643 0 0 0-2.429 9.064 6.658 6.658 0 0 0 5.751 3.317 6.637 6.637 0 0 0 3.313-.89c1.534-.886 2.632-2.316 3.091-4.028s.224-3.5-.663-5.035a6.646 6.646 0 0 0-4.246-3.133v-7.655a8.653 8.653 0 0 0 2.629-.918l8.712 10.914c-1.631 2.07-1.94 5.009-.544 7.428a6.658 6.658 0 0 0 5.751 3.317 6.637 6.637 0 0 0 3.313-.89c1.534-.886 2.632-2.316 3.091-4.028s.225-3.5-.662-5.035zm-38.683 5.135a3.648 3.648 0 0 1-3.153 1.818c-.633 0-1.26-.169-1.814-.488-.84-.485-1.441-1.269-1.692-2.206s-.122-1.918.363-2.759a3.648 3.648 0 0 1 3.153-1.818c.633 0 1.26.168 1.812.487a3.613 3.613 0 0 1 1.693 2.207 3.602 3.602 0 0 1-.362 2.759zm18.042-3.635c.485.841.614 1.82.363 2.759a3.634 3.634 0 0 1-6.659.877 3.642 3.642 0 0 1 1.331-4.967 3.64 3.64 0 0 1 1.81-.487l.008.001h.004a3.645 3.645 0 0 1 3.143 1.817zm-3.127-15.142L50 45.332l-.015.002a5.657 5.657 0 0 1-4.862-2.816 5.59 5.59 0 0 1-.562-4.271 5.6 5.6 0 0 1 2.626-3.42 5.625 5.625 0 0 1 2.808-.756c2.009 0 3.88 1.08 4.883 2.816a5.591 5.591 0 0 1 .562 4.273 5.59 5.59 0 0 1-2.623 3.419 5.627 5.627 0 0 1-2.796.755zm21.534 17.9a3.634 3.634 0 0 1-6.659.877 3.64 3.64 0 0 1 1.331-4.967 3.64 3.64 0 0 1 1.812-.487 3.65 3.65 0 0 1 3.153 1.818c.485.841.614 1.821.363 2.759z"></path></g></svg> 