<svg width="100" height="76" viewBox="0 0 100 76" fill="#333" xmlns="http://www.w3.org/2000/svg">
<path d="M97.5138 55.7339C96.3463 53.7209 94.6711 52.0496 92.6555 50.8867C90.64 49.7238 88.3545 49.1101 86.0275 49.1069C84.0562 49.1069 82.1169 49.5763 80.3373 50.4271L62.9351 28.6249C64.6941 26.6368 65.9666 24.2669 66.652 21.7023C67.2443 19.5161 67.3969 17.2342 67.101 14.9886C66.8051 12.743 66.0667 10.5784 64.9284 8.62023C63.4101 6.00184 61.2314 3.8277 58.6098 2.31502C55.9881 0.802341 53.0155 0.0040837 49.9888 0C46.9789 0 44.005 0.79891 41.3865 2.31284C39.4213 3.43876 37.6991 4.94362 36.3198 6.74015C34.9405 8.53668 33.9316 10.5891 33.3515 12.7785C32.7581 14.9641 32.6045 17.2457 32.8997 19.491C33.1949 21.7364 33.933 23.9008 35.0712 25.8587C35.6464 26.8573 36.3434 27.7581 37.0924 28.6049L19.6622 50.4271C17.8881 49.5693 15.9446 49.1189 13.974 49.1089C11.6467 49.1122 9.36107 49.7259 7.34517 50.8887C5.32927 52.0516 3.65368 53.7229 2.48569 55.7358C1.61176 57.2416 1.04495 58.9055 0.818003 60.6316C0.591057 62.3577 0.708486 64.1117 1.1635 65.7921C1.60882 67.4744 2.38364 69.0516 3.44304 70.4322C4.50243 71.8129 5.82534 72.9695 7.33506 73.8351C9.34722 74.9983 11.6298 75.612 13.954 75.6147C16.2812 75.611 18.5667 74.9971 20.5825 73.8343C22.5984 72.6715 24.274 71.0004 25.4423 68.9877C26.3159 67.4819 26.8826 65.8179 27.1095 64.0919C27.3365 62.3659 27.2192 60.6119 26.7645 58.9315C26.2991 57.1885 25.4806 55.5597 24.3598 54.146L41.764 32.3538C43.4006 33.2413 45.1696 33.859 47.0029 34.1833V49.4724C45.7303 49.7621 44.5075 50.2379 43.3738 50.8845C40.3329 52.6447 38.1144 55.5392 37.2049 58.933C36.2954 62.3268 36.7693 65.9428 38.5224 68.9877C39.6901 71.0004 41.3653 72.6715 43.381 73.834C45.3966 74.9966 47.6819 75.6099 50.0088 75.6127C52.3321 75.6103 54.614 74.9973 56.6257 73.8351C59.6895 72.0655 61.8825 69.2094 62.7993 65.7901C63.716 62.3708 63.2467 58.7997 61.4751 55.7339C60.5637 54.1671 59.341 52.8036 57.8825 51.7274C56.424 50.6512 54.7606 49.8851 52.9947 49.4764V34.1873C54.8325 33.8636 56.6057 33.2444 58.2455 32.3538L75.6457 54.152C72.3882 58.2864 71.771 64.1563 74.5592 68.9877C75.7268 71.0004 77.4021 72.6715 79.4177 73.834C81.4333 74.9966 83.7187 75.6099 86.0455 75.6127C88.3688 75.6103 90.6507 74.9973 92.6625 73.8351C95.7263 72.0655 97.9193 69.2094 98.836 65.7901C99.7528 62.3708 99.2854 58.7997 97.5138 55.7339ZM20.2534 65.9898C19.6135 67.0934 18.695 68.0096 17.5899 68.6468C16.4848 69.284 15.2317 69.6199 13.956 69.6209C12.6917 69.6209 11.4395 69.2833 10.333 68.6462C8.65526 67.6775 7.4549 66.1117 6.95359 64.2402C6.45227 62.3688 6.70992 60.4095 7.67859 58.7298C8.31853 57.6262 9.23699 56.71 10.3421 56.0728C11.4473 55.4356 12.7003 55.0997 13.976 55.0987C15.2403 55.0987 16.4926 55.4343 17.595 56.0714C18.422 56.5463 19.1465 57.1803 19.7269 57.9369C20.3073 58.6935 20.732 59.5577 20.9764 60.4794C21.2273 61.3999 21.2927 62.3612 21.1685 63.3072C21.0444 64.2533 20.7333 65.1652 20.2534 65.9898ZM56.2882 58.7298C57.2568 60.4095 57.5145 62.3648 57.0132 64.2402C56.6424 65.6278 55.8682 66.8742 54.7887 67.8216C53.7092 68.769 52.3729 69.3748 50.9489 69.5624C49.5249 69.7499 48.0772 69.5108 46.7892 68.8752C45.5012 68.2396 44.4308 67.2361 43.7134 65.9918C42.7535 64.323 42.4943 62.3418 42.9926 60.4823C43.4909 58.6228 44.706 57.0366 46.3717 56.0714C47.4712 55.4371 48.7175 55.1018 49.9868 55.0987L50.0028 55.1007H50.0108C51.283 55.1044 52.532 55.4414 53.6334 56.0781C54.7348 56.7148 55.6501 57.6291 56.2882 58.7298ZM50.0427 28.4871L50.0008 28.4831L49.9708 28.4871C48.0025 28.4767 46.0711 27.9522 44.3678 26.9657C42.6646 25.9792 41.2486 24.5649 40.2601 22.8628C39.5181 21.5858 39.0368 20.1743 38.8441 18.7101C38.6515 17.2458 38.7512 15.7579 39.1376 14.3324C39.5171 12.9038 40.176 11.5645 41.0762 10.3921C41.9765 9.21961 43.1002 8.23724 44.3824 7.50175C46.0872 6.51556 48.0213 5.99484 49.9908 5.99181C54.0033 5.99181 57.7402 8.14887 59.7435 11.6161C60.4859 12.8937 60.9674 14.3058 61.1601 15.7708C61.3527 17.2358 61.2528 18.7244 60.8659 20.1505C60.4879 21.5787 59.8302 22.9177 58.931 24.0899C58.0317 25.2621 56.9087 26.2441 55.6271 26.9791C53.9291 27.9604 52.0038 28.4803 50.0427 28.4871ZM93.0519 64.2382C92.6811 65.6258 91.907 66.8722 90.8275 67.8196C89.748 68.767 88.4116 69.3728 86.9876 69.5604C85.5636 69.7479 84.116 69.5088 82.828 68.8732C81.54 68.2376 80.4695 67.2341 79.7521 65.9898C78.7912 64.3213 78.5314 62.3397 79.0298 60.4799C79.5282 58.62 80.744 57.0339 82.4105 56.0694C83.5111 55.4345 84.7589 55.0991 86.0295 55.0967C87.3051 55.0981 88.558 55.4342 89.6631 56.0713C90.7682 56.7085 91.6867 57.6245 92.3269 58.7278C93.2956 60.4075 93.5533 62.3648 93.0519 64.2382Z" fill="url(#paint0_linear_34_6)"/>
<defs>
<linearGradient id="paint0_linear_34_6" x1="-30.2588" y1="15.5569" x2="8904.92" y2="4182.1" gradientUnits="userSpaceOnUse">
<stop stop-color="#333"/>
<stop offset="1" stop-color="#333"/>
</linearGradient>
</defs>
</svg>
